# xmcd
#
# Track frame offsets:
#	150
#	15203
#	28252
#	40701
#	49657
#	64396
#	77347
#	87766
#	97715
#	112590
#	126733
#	144986
#
# Disc length: 2104 seconds
#
# Revision: 0
# Processed by: cddbd v1.5.1PL0 Copyright (c) Steve Scherf et al.
# Submitted via: dBpowerAMP V4.0
#
DISCID=8708360c
DTITLE=Various Artist - Red Hot Cajun Classics
DYEAR=2004
DGENRE=Bluegrass
TTITLE0=Big Mamou - Clifton Chenier
TTITLE1=Hippy-Ty-O - Doug Kershaw
TTITLE2=Jole Blon - Papa Link Davis
TTITLE3=Papa Thibodeaux - Rod Bernard
TTITLE4=White Lightening - Fiddlin' Frenchie Bourke
TTITLE5=Heartbroken Love - Joe Barry
TTITLE6=The Chickens Don't Lay - Tee Bruce and Joe Bonsall
TTITLE7=Please Mr. Sandman - Jimmy Donley
TTITLE8=La Coeur De La Louisiana - Clifton Chenier
TTITLE9=The Prisoner's Song - Warren Storm
TTITLE10=I Know You Rider - Sonny Landreth
TTITLE11=Real Ole Cajun Me - Doug and Rusty Kershaw
EXTD=
EXTT0=
EXTT1=
EXTT2=
EXTT3=
EXTT4=
EXTT5=
EXTT6=
EXTT7=
EXTT8=
EXTT9=
EXTT10=
EXTT11=
PLAYORDER=
